<svg width="46" height="46" viewBox="0 0 46 46" fill="none" xmlns="http://www.w3.org/2000/svg">
<g id="humbleicons:chat">
<g id="Group">
<path id="Vector" d="M7.91802 36.75L6.13552 36.0408C6.00815 36.3613 5.96961 36.7102 6.02394 37.0507C6.07828 37.3913 6.22348 37.7108 6.44424 37.9757C6.66501 38.2407 6.95316 38.4411 7.27831 38.556C7.60347 38.6708 7.95359 38.6958 8.29177 38.6283L7.91802 36.75ZM16.9379 34.956L17.8464 33.2674L17.2388 32.9416L16.5641 33.0758L16.9379 34.956ZM11.0307 28.9242L12.8132 29.6334L13.1256 28.8399L12.7499 28.0752L11.0307 28.9242ZM36.668 23.3333C36.668 29.5548 31.1998 34.8333 24.1522 34.8333V38.6667C33.0474 38.6667 40.5014 31.9315 40.5014 23.3333H36.668ZM11.6383 23.3333C11.6383 17.1118 17.1084 11.8333 24.1541 11.8333V8C15.2589 8 7.80302 14.7352 7.80302 23.3333H11.6383ZM24.1541 11.8333C31.1998 11.8333 36.668 17.1118 36.668 23.3333H40.5014C40.5014 14.7352 33.0494 8 24.1541 8V11.8333ZM24.1522 34.8333C21.8426 34.8333 19.6921 34.2583 17.8464 33.2674L16.0294 36.6427C18.5284 37.9793 21.3182 38.6747 24.1522 38.6667V34.8333ZM8.29177 38.6283L17.3116 36.8343L16.5641 33.0758L7.54427 34.8697L8.29177 38.6303V38.6283ZM12.7499 28.0752C12.0179 26.6016 11.6387 24.9787 11.6383 23.3333H7.80302C7.80302 25.6333 8.34352 27.8145 9.30952 29.7733L12.7499 28.0752ZM9.2501 28.2151L6.13552 36.0428L9.69668 37.4573L12.8094 29.6315L9.24818 28.2151H9.2501Z" fill="black"/>
<path id="Vector_2" d="M17.5014 25.25C18.5599 25.25 19.418 24.3919 19.418 23.3333C19.418 22.2748 18.5599 21.4167 17.5014 21.4167C16.4428 21.4167 15.5847 22.2748 15.5847 23.3333C15.5847 24.3919 16.4428 25.25 17.5014 25.25Z" fill="black"/>
<path id="Vector_3" d="M24.2097 25.25C25.2682 25.25 26.1264 24.3919 26.1264 23.3333C26.1264 22.2748 25.2682 21.4167 24.2097 21.4167C23.1512 21.4167 22.293 22.2748 22.293 23.3333C22.293 24.3919 23.1512 25.25 24.2097 25.25Z" fill="black"/>
<path id="Vector_4" d="M30.918 25.25C31.9766 25.25 32.8347 24.3919 32.8347 23.3333C32.8347 22.2748 31.9766 21.4167 30.918 21.4167C29.8595 21.4167 29.0013 22.2748 29.0013 23.3333C29.0013 24.3919 29.8595 25.25 30.918 25.25Z" fill="black"/>
</g>
</g>
</svg>
