<svg width="50" height="50" viewBox="0 0 50 50" fill="none" xmlns="http://www.w3.org/2000/svg">
<g clip-path="url(#clip0_222_348)">
<path d="M1.06699 24.7008C1.06582 28.9017 2.17207 33.0037 4.27559 36.6192L0.865822 48.9723L13.6064 45.6576C17.1303 47.5611 21.0786 48.5585 25.0908 48.5587H25.1014C38.3465 48.5587 49.1283 37.8643 49.134 24.7196C49.1365 18.35 46.6389 12.3605 42.101 7.85427C37.5639 3.34845 31.5297 0.8657 25.1004 0.862793C11.8537 0.862793 1.07266 11.5566 1.06719 24.7008" fill="url(#paint0_linear_222_348)"/>
<path d="M0.208984 24.693C0.207617 29.0452 1.35352 33.2938 3.53203 37.0388L0 49.8347L13.1975 46.4012C16.8338 48.3684 20.9279 49.4056 25.0939 49.4072H25.1047C38.825 49.4072 49.9941 38.3281 50 24.7128C50.0023 18.1143 47.4148 11.9095 42.7148 7.24186C38.0143 2.57481 31.7643 0.00271318 25.1047 0C11.382 0 0.214453 11.0775 0.208984 24.693ZM8.06836 36.3938L7.57559 35.6176C5.5041 32.3494 4.41074 28.5727 4.4123 24.6946C4.4168 13.3777 13.6988 4.17054 25.1125 4.17054C30.6398 4.17287 35.8344 6.31085 39.7414 10.1899C43.6482 14.0694 45.798 19.2264 45.7967 24.7112C45.7916 36.0281 36.5094 45.2364 25.1047 45.2364H25.0965C21.383 45.2345 17.741 44.245 14.5648 42.375L13.809 41.9302L5.97734 43.9676L8.06836 36.3936V36.3938Z" fill="url(#paint1_linear_222_348)"/>
<path d="M18.8824 14.3698C18.4164 13.3421 17.926 13.3213 17.4828 13.3033C17.1199 13.2878 16.7051 13.289 16.2906 13.289C15.8758 13.289 15.2018 13.4438 14.632 14.0611C14.0617 14.6789 12.4547 16.1719 12.4547 19.2085C12.4547 22.2454 14.6838 25.18 14.9945 25.5923C15.3057 26.0037 19.2979 32.4347 25.6205 34.9087C30.8752 36.9647 31.9445 36.5558 33.085 36.4527C34.2256 36.35 36.7654 34.9601 37.2836 33.5188C37.8021 32.0777 37.8022 30.8424 37.6467 30.5843C37.4912 30.3271 37.0764 30.1727 36.4543 29.8642C35.832 29.5554 32.7738 28.0622 32.2037 27.8562C31.6334 27.6504 31.2188 27.5477 30.8039 28.1657C30.3891 28.7828 29.1979 30.1727 28.8348 30.5843C28.4721 30.9969 28.109 31.0483 27.4871 30.7395C26.8646 30.4298 24.8613 29.7789 22.4846 27.6764C20.6354 26.0403 19.3869 24.02 19.024 23.4019C18.6611 22.7849 18.9852 22.4504 19.2971 22.1428C19.5766 21.8663 19.9193 21.4221 20.2307 21.0618C20.5408 20.7014 20.6443 20.4442 20.8518 20.0326C21.0594 19.6205 20.9555 19.2601 20.8002 18.9514C20.6443 18.6426 19.4355 15.5901 18.8824 14.3698Z" fill="white"/>
</g>
<defs>
<linearGradient id="paint0_linear_222_348" x1="2414.27" y1="4811.81" x2="2414.27" y2="0.862793" gradientUnits="userSpaceOnUse">
<stop stop-color="#1FAF38"/>
<stop offset="1" stop-color="#60D669"/>
</linearGradient>
<linearGradient id="paint1_linear_222_348" x1="2500" y1="4983.47" x2="2500" y2="0" gradientUnits="userSpaceOnUse">
<stop stop-color="#F9F9F9"/>
<stop offset="1" stop-color="white"/>
</linearGradient>
<clipPath id="clip0_222_348">
<rect width="50" height="50" fill="white"/>
</clipPath>
</defs>
</svg>
