<svg width="40" height="40" viewBox="0 0 40 40" fill="none" xmlns="http://www.w3.org/2000/svg">
<g id="ri:share-fill">
<path id="Vector" d="M22.6267 28.785L14.11 24.14C13.2925 24.9515 12.253 25.5028 11.1226 25.7244C9.99227 25.946 8.8216 25.8279 7.75821 25.3852C6.69482 24.9424 5.78632 24.1947 5.14725 23.2363C4.50818 22.278 4.16714 21.1519 4.16714 20C4.16714 18.8481 4.50818 17.722 5.14725 16.7637C5.78632 15.8053 6.69482 15.0576 7.75821 14.6148C8.8216 14.1721 9.99227 14.054 11.1226 14.2756C12.253 14.4972 13.2925 15.0485 14.11 15.86L22.6267 11.215C22.3346 9.84456 22.5455 8.41477 23.221 7.18709C23.8964 5.95941 24.9912 5.01589 26.3052 4.52906C27.6191 4.04223 29.0644 4.04463 30.3767 4.53581C31.689 5.027 32.7806 5.97415 33.452 7.20407C34.1234 8.43398 34.3296 9.86446 34.033 11.2339C33.7363 12.6034 32.9567 13.8203 31.8365 14.6622C30.7164 15.504 29.3306 15.9145 27.9327 15.8187C26.5348 15.7228 25.218 15.1269 24.2233 14.14L15.7067 18.785C15.8763 19.5856 15.8763 20.4128 15.7067 21.2133L24.2233 25.86C25.218 24.8731 26.5348 24.2772 27.9327 24.1813C29.3306 24.0855 30.7164 24.496 31.8365 25.3378C32.9567 26.1797 33.7363 27.3966 34.033 28.7661C34.3296 30.1355 34.1234 31.566 33.452 32.7959C32.7806 34.0259 31.689 34.973 30.3767 35.4642C29.0644 35.9554 27.6191 35.9578 26.3052 35.4709C24.9912 34.9841 23.8964 34.0406 23.221 32.8129C22.5455 31.5852 22.3346 30.1554 22.6267 28.785Z" fill="black"/>
</g>
</svg>
